<svg xlink="http://www.w3.org/1999/xlink" viewBox="0 0 5000 5000" xmlns="http://www.w3.org/2000/svg" style="transform: scale(1);"><defs><filter id="goo"><feGaussianBlur in="SourceGraphic" stdDeviation="0" result="blur"></feGaussianBlur><feColorMatrix in="blur" type="matrix" values="1 0 0 0 0 0 1 0 0 0 0 0 1 0 0 0 0 0 19 -9" result="good"></feColorMatrix><feComposite in="SourceGraphic" in2="goo" operator="atop"></feComposite></filter><path d="M246,283C240,264 234,258 217,248Q221,210 256,218C271,221 281,233 283,248Q284,286 246,283z" id="P0"></path><path d="M288,240C270,251 269,258 280,275Q268,306 243,288C235,265 229,255 214,236Q250,191 288,240z" id="P1"></path><path d="M252,216C281,227 288,260 264,281Q244,301 230,278C214,262 214,238 228,224Q234,201 252,216z" id="P2"></path><path d="M196,224C209,201 234,188 258,190C284,196 304,216 309,239C312,266 299,291 279,303C254,314 226,310 209,294C190,274 186,246 196,224z" id="P3"></path><path d="M145,237L312,164L289,349L145,237z" id="P4"></path><path d="M237,351C198,345 141,341 123,291C109,250 105,203 133,165C137,157 207,209 212,205C234,189 279,100 334,134C350,144 290,217 291,220C299,230 369,235 364,264C361,294 302,288 290,298C277,308 270,354 237,351z" id="P5"></path><path d="M130,326L112,215L333,135L389,223L130,326z" id="P6"></path><path d="M128,235C196,211 222,190 265,128Q392,132 372,265C304,289 278,310 235,372Q108,368 128,235z" id="P7"></path><path d="M277,233C284,264 259,286 231,276L222,265C215,243 227,223 252,218C256,234 261,237 277,233z" id="P8"></path><path d="M262,280Q204,265 238,220C248,233 252,233 262,220C264,240 267,249 277,267Q281,287 262,280z" id="P9"></path><path d="M228,224Q263,201 282,239C267,259 255,269 234,280C235,261 232,253 217,242Q205,225 228,224z" id="P10"></path><path d="M212,191C241,176 273,179 295,196C318,218 325,250 315,276C301,305 273,321 246,320C214,316 189,294 182,267C176,236 189,206 212,191z" id="P11"></path><path d="M195,309L225,173L328,270L195,309z" id="P12"></path><path d="M217,76C309,68 393,115 429,216C439,262 355,284 339,307C325,330 302,344 282,348C257,357 221,404 177,382C168,379 140,401 132,393C86,354 131,281 133,243C136,205 113,137 169,102C187,90 205,75 217,76z" id="P13"></path><path d="M260,170L305,191L255,331L195,309L260,170z" id="P14"></path><path d="M121,311Q46,184 189,121Q316,46 379,189Q454,316 311,379Q184,454 121,311z" id="P15"></path><path d="M234,216L278,224C271,251 264,267 243,287Q223,300 222,276L234,216z" id="P16"></path><path d="M240,229C252,238 258,240 272,244L262,269C248,275 234,269 228,257Q219,235 240,229z" id="P17"></path><path d="M247,277Q224,281 224,257C226,230 252,219 272,234C277,241 278,250 275,260Q270,285 247,277z" id="P18"></path><path d="M177,245C182,212 204,187 232,179C265,173 296,187 312,211C327,240 324,274 306,297C283,321 250,328 223,318C193,303 176,274 177,245z" id="P19"></path><path d="M122,226L333,150L290,374L122,226z" id="P20"></path><path d="M275,153C294,157 282,206 286,211C299,223 454,211 448,262C443,327 291,284 280,291C275,296 284,336 267,339C232,345 187,349 164,321C154,311 202,273 202,269C194,247 161,201 199,170C219,156 243,146 275,153z" id="P21"></path><path d="M128,120L326,89L380,372L283,425L128,120z" id="P22"></path><path d="M213,394Q61,370 106,213L287,106L394,287L213,394z" id="P23"></path><path d="M232,235C244,225 259,226 269,236C274,245 274,256 268,265Q254,284 238,269Q216,254 232,235z" id="P24"></path><path d="M234,233C247,237 253,237 265,232L243,273C243,260 240,257 227,256C237,248 239,244 234,233z" id="P25"></path><path d="M240,211C258,208 275,215 285,231L285,269C259,295 221,285 210,247L240,211z" id="P26"></path><path d="M321,283C303,314 271,331 240,327C205,320 180,295 173,265C169,229 186,197 212,182C245,167 281,172 303,193C328,219 333,255 321,283z" id="P27"></path><path d="M369,257L186,350L199,142L369,257z" id="P28"></path><path d="M215,306C193,291 173,270 176,236C179,217 102,127 141,100C190,65 250,46 310,65C346,75 304,184 314,197C321,205 336,210 336,216C347,244 367,280 343,318C321,348 273,321 246,321C232,321 221,312 215,306z" id="P29"></path><path d="M117,391L62,298L274,58L441,214L117,391z" id="P30"></path><path d="M95,349Q-21,198 151,95C238,52 335,70 405,151C448,238 430,335 349,405L95,349z" id="P31"></path></defs><rect id="RECT" width="5000" height="5000" fill="#1C223B"></rect><g id="group" fill="#AFA038" filter=""><use x="-198" y="-70" href="#P18"></use><use x="-158" y="322" href="#P29"></use><use x="144" y="806" href="#P10"></use><use x="204" y="1566" href="#P16"></use><use x="66" y="2080" href="#P13"></use><use x="-180" y="2614" href="#P31"></use><use x="127" y="3240" href="#P20"></use><use x="-34" y="3686" href="#P20"></use><use x="241" y="3828" href="#P27"></use><use x="65" y="4664" href="#P19"></use><use x="235" y="4802" href="#P25"></use><use x="656" y="185" href="#P4"></use><use x="651" y="590" href="#P16"></use><use x="629" y="776" href="#P27"></use><use x="843" y="1499" href="#P25"></use><use x="662" y="1824" href="#P7"></use><use x="569" y="2618" href="#P31"></use><use x="641" y="3111" href="#P1"></use><use x="461" y="3771" href="#P16"></use><use x="825" y="4265" href="#P29"></use><use x="354" y="4452" href="#P26"></use><use x="631" y="4909" href="#P31"></use><use x="1131" y="199" href="#P29"></use><use x="1338" y="312" href="#P21"></use><use x="1121" y="804" href="#P19"></use><use x="909" y="1703" href="#P11"></use><use x="1235" y="2019" href="#P20"></use><use x="1073" y="2566" href="#P21"></use><use x="1004" y="3003" href="#P16"></use><use x="1332" y="3427" href="#P5"></use><use x="1071" y="4239" href="#P16"></use><use x="1121" y="4600" href="#P15"></use><use x="1078" y="4856" href="#P5"></use><use x="1799" y="166" href="#P6"></use><use x="1723" y="463" href="#P19"></use><use x="1745" y="879" href="#P1"></use><use x="1524" y="1537" href="#P24"></use><use x="1905" y="2033" href="#P28"></use><use x="1692" y="2419" href="#P24"></use><use x="1784" y="2850" href="#P7"></use><use x="1630" y="3713" href="#P8"></use><use x="1559" y="4184" href="#P10"></use><use x="1919" y="4772" href="#P1"></use><use x="1944" y="5111" href="#P10"></use><use x="2094" y="-60" href="#P30"></use><use x="2037" y="444" href="#P15"></use><use x="2172" y="871" href="#P5"></use><use x="2456" y="1762" href="#P0"></use><use x="2339" y="1800" href="#P24"></use><use x="2329" y="2521" href="#P0"></use><use x="1952" y="3149" href="#P9"></use><use x="1987" y="3575" href="#P31"></use><use x="2072" y="3881" href="#P29"></use><use x="2239" y="4417" href="#P5"></use><use x="2468" y="4818" href="#P27"></use><use x="2810" y="39" href="#P10"></use><use x="2655" y="672" href="#P17"></use><use x="2769" y="987" href="#P12"></use><use x="2681" y="1606" href="#P25"></use><use x="2864" y="2155" href="#P22"></use><use x="3043" y="2689" href="#P16"></use><use x="2935" y="3151" href="#P22"></use><use x="2934" y="3605" href="#P11"></use><use x="2620" y="4117" href="#P29"></use><use x="2637" y="4681" href="#P12"></use><use x="2870" y="5290" href="#P29"></use><use x="3088" y="215" href="#P25"></use><use x="3245" y="366" href="#P17"></use><use x="3329" y="896" href="#P16"></use><use x="3440" y="1313" href="#P21"></use><use x="3540" y="2261" href="#P22"></use><use x="3600" y="2428" href="#P2"></use><use x="3075" y="3222" href="#P29"></use><use x="3582" y="3666" href="#P23"></use><use x="3456" y="3916" href="#P3"></use><use x="3189" y="4577" href="#P12"></use><use x="3146" y="5070" href="#P31"></use><use x="3803" y="105" href="#P7"></use><use x="4078" y="329" href="#P5"></use><use x="3680" y="981" href="#P6"></use><use x="3955" y="1374" href="#P15"></use><use x="3721" y="1977" href="#P4"></use><use x="3696" y="2593" href="#P29"></use><use x="3985" y="2908" href="#P2"></use><use x="4011" y="3500" href="#P11"></use><use x="3850" y="4069" href="#P21"></use><use x="3961" y="4468" href="#P8"></use><use x="3805" y="5137" href="#P15"></use><use x="4548" y="-202" href="#P30"></use><use x="4432" y="451" href="#P22"></use><use x="4316" y="1132" href="#P5"></use><use x="4305" y="1652" href="#P25"></use><use x="4658" y="2056" href="#P10"></use><use x="4404" y="2762" href="#P23"></use><use x="4519" y="2795" href="#P16"></use><use x="4596" y="3709" href="#P8"></use><use x="4686" y="4188" href="#P12"></use><use x="4517" y="4315" href="#P30"></use><use x="4250" y="5237" href="#P24"></use><use x="5113" y="-4" href="#P12"></use><use x="4969" y="608" href="#P2"></use><use x="4980" y="1212" href="#P29"></use><use x="4767" y="1639" href="#P20"></use><use x="5144" y="2060" href="#P10"></use><use x="4881" y="2719" href="#P19"></use><use x="5050" y="2830" href="#P11"></use><use x="5176" y="3710" href="#P3"></use><use x="4725" y="4021" href="#P29"></use><use x="4970" y="4340" href="#P23"></use><use x="4993" y="5139" href="#P21"></use></g></svg>