<svg width="50" height="12" viewBox="0 0 50 12" fill="none" xmlns="http://www.w3.org/2000/svg">
<path d="M36.4939 0.840705C35.7324 0.840705 35.1171 1.0326 34.648 1.4164C34.1789 1.79411 33.9444 2.28452 33.9444 2.88764C33.9444 3.48466 34.1637 3.94766 34.6023 4.27663C35.0409 4.6056 35.9395 4.99549 37.298 5.4463C38.6566 5.89712 39.61 6.36621 40.1583 6.85357C40.7126 7.33484 40.9898 8.04762 40.9898 8.99189C40.9898 9.93616 40.6456 10.652 39.9572 11.1393C39.2688 11.6206 38.4373 11.8612 37.4625 11.8612C35.4887 11.8612 33.8438 11.2703 32.528 10.0885L32.9392 9.44879C34.188 10.5454 35.6471 11.0936 37.3163 11.0936C39.1866 11.0936 40.1217 10.3778 40.1217 8.94619C40.1217 8.24561 39.8933 7.71255 39.4364 7.34703C38.9855 6.97541 38.2332 6.61598 37.1793 6.26873C36.1314 5.92149 35.4278 5.67476 35.0684 5.52855C34.7089 5.37625 34.3525 5.17521 33.9992 4.92543C33.6519 4.67566 33.4113 4.38933 33.2773 4.06645C33.1494 3.73748 33.0854 3.32931 33.0854 2.84195C33.0854 2.0317 33.3961 1.37071 34.0175 0.858981C34.645 0.347248 35.4704 0.0913809 36.4939 0.0913809C37.9621 0.097473 39.3084 0.411214 40.5329 1.0326L40.2588 1.69969C39.1135 1.12703 37.8585 0.840705 36.4939 0.840705Z" fill="black"/>
<path d="M50 11.6968H43.0825V10.9657H46.4087V1.32502C45.3731 1.78802 44.3009 2.14441 43.1921 2.39418L43.0002 1.83676C44.3709 1.4225 45.5711 0.904671 46.6006 0.283281H47.2312V10.9657H50V11.6968Z" fill="black"/>
<path d="M23.7085 5.34627L26.904 11.1952H29.7274L23.7139 0.208349L17.6731 11.1952L20.4473 11.1896L23.7085 5.34627Z" fill="black"/>
<path d="M5.78813 1.01545e-05C2.59671 -0.00594543 1.00396e-05 2.60856 1.00396e-05 5.84244C-0.00587818 9.07037 2.57905 11.6968 5.77636 11.6968C8.96777 11.7027 11.5645 9.08823 11.5645 5.85435C11.5645 2.62642 8.97955 0.00596574 5.78813 1.01545e-05ZM5.77636 8.96912C4.07466 8.96912 2.69681 7.56956 2.69681 5.84839C2.7027 4.12723 4.08055 2.73362 5.78224 2.73362C7.48394 2.73362 8.86178 4.13319 8.86178 5.85435C8.86178 7.57551 7.47805 8.96912 5.77636 8.96912Z" fill="black"/>
<path d="M15.0045 8.64437L15.0155 0.30704H12.493L12.5241 8.20713L12.4826 11.1939H16.6077L18.0523 8.64437H15.0045Z" fill="black"/>
</svg>
